<svg width="7" height="8" viewBox="0 0 7 8" fill="none" xmlns="http://www.w3.org/2000/svg">
<g clip-path="url(#clip0_201_13729)">
<path d="M0.676025 5.70737V6.54039H2.89739V6.01559H1.2036V5.70737C1.2036 5.52967 2.07271 5.12427 2.89739 5.12427C3.16395 5.12704 3.42774 5.16314 3.6832 5.22978L4.10526 4.80772C3.71652 4.67722 3.3139 4.60502 2.89739 4.59669C2.15601 4.59669 0.676025 4.96599 0.676025 5.70737ZM2.89739 2.09766C2.28374 2.09766 1.78671 2.59469 1.78671 3.20834C1.78671 3.82199 2.28374 4.31902 2.89739 4.31902C3.51104 4.31902 4.00807 3.82199 4.00807 3.20834C4.00807 2.59469 3.51104 2.09766 2.89739 2.09766ZM2.89739 3.76368C2.59195 3.76368 2.34205 3.51655 2.34205 3.20834C2.34205 2.90012 2.59195 2.653 2.89739 2.653C3.20283 2.653 3.45273 2.9029 3.45273 3.20834C3.45273 3.51378 3.20561 3.76368 2.89739 3.76368ZM6.14614 4.69388L5.86847 4.97155L5.29924 4.41621L5.57691 4.13854C5.63522 4.08022 5.73241 4.08022 5.79072 4.13854L6.14614 4.49395C6.20445 4.55226 6.20445 4.64945 6.14614 4.70776V4.69388ZM3.45273 6.24606L5.13542 4.56337L5.70464 5.11871L4.03862 6.80417H3.45273V6.24606Z" fill="black"/>
</g>
<defs>
<clipPath id="clip0_201_13729">
<rect width="6.6641" height="6.6641" fill="white" transform="translate(0.120605 0.986328)"/>
</clipPath>
</defs>
</svg>
