<svg width="7" height="8" viewBox="0 0 7 8" fill="none" xmlns="http://www.w3.org/2000/svg">
<g clip-path="url(#clip0_201_13731)">
<path d="M6.35984 4.69388L6.08217 4.97155L5.51294 4.40232L5.79061 4.12465C5.84892 4.06634 5.94611 4.06634 6.00442 4.12465L6.35984 4.48007C6.41815 4.53838 6.41815 4.63557 6.35984 4.69388ZM3.66643 6.24606L5.34912 4.56337L5.91834 5.1326L4.23844 6.81806H3.66643V6.24606ZM3.66643 4.87436C2.43913 4.87436 1.44507 5.37139 1.44507 5.98505V6.54039H3.11109V6.01559L4.22177 4.90491C4.03851 4.88269 3.85247 4.87436 3.66643 4.87436ZM3.66643 2.09766C3.37186 2.09766 3.08936 2.21467 2.88106 2.42297C2.67277 2.63126 2.55575 2.91377 2.55575 3.20834C2.55575 3.50291 2.67277 3.78542 2.88106 3.99371C3.08936 4.202 3.37186 4.31902 3.66643 4.31902C3.961 4.31902 4.24351 4.202 4.4518 3.99371C4.6601 3.78542 4.77712 3.50291 4.77712 3.20834C4.77712 2.91377 4.6601 2.63126 4.4518 2.42297C4.24351 2.21467 3.961 2.09766 3.66643 2.09766Z" fill="black"/>
</g>
<defs>
<clipPath id="clip0_201_13731">
<rect width="6.6641" height="6.6641" fill="white" transform="translate(0.334473 0.986328)"/>
</clipPath>
</defs>
</svg>
