<svg width="8" height="7" viewBox="0 0 8 7" fill="none" xmlns="http://www.w3.org/2000/svg">
<g clip-path="url(#clip0_201_24855)">
<path d="M1.87748 1.0459C1.56927 1.0459 1.32214 1.29303 1.32214 1.60124V5.48863C1.32214 5.63591 1.38065 5.77717 1.4848 5.88131C1.58895 5.98546 1.7302 6.04397 1.87748 6.04397H5.76487C5.91216 6.04397 6.05341 5.98546 6.15756 5.88131C6.26171 5.77717 6.32022 5.63591 6.32022 5.48863V3.54493H5.76487V5.48863H1.87748V1.60124H3.82118V1.0459H1.87748ZM5.42612 1.32357C5.37891 1.32357 5.32893 1.34301 5.29283 1.3791L4.95408 1.71508L5.64825 2.40926L5.98701 2.07328C6.0592 2.00109 6.0592 1.87891 5.98701 1.80949L5.55662 1.3791C5.52052 1.34301 5.47332 1.32357 5.42612 1.32357ZM4.75693 1.91223L2.7105 3.96144V4.65562H3.40467L5.45111 2.60641L4.75693 1.91223Z" fill="black"/>
</g>
<defs>
<clipPath id="clip0_201_24855">
<rect width="6.6641" height="6.6641" fill="white" transform="translate(0.489136 0.212891)"/>
</clipPath>
</defs>
</svg>
