<svg width="105" height="100" viewBox="0 0 105 100" fill="none" xmlns="http://www.w3.org/2000/svg">
<path fill-rule="evenodd" clip-rule="evenodd" d="M99.1 50.1001C99.1 77.5001 76.9 99.7 49.6 99.7C22.2 99.7 0 77.5001 0 50.1001C0 22.7001 22.2 0.5 49.6 0.5C76.9 0.5 99.1 22.7001 99.1 50.1001ZM78.7 86C78.1 75.2 69.3 66.6001 58.4 66.6001H40.7C29.8 66.6001 21 75.2 20.5 86C28.4 92.5 38.5 96.3999 49.6 96.3999C60.6 96.3999 70.7 92.5 78.7 86ZM95.8 50.1001C95.8 24.6001 75.1 3.80005 49.6 3.80005C24 3.80005 3.29999 24.6001 3.29999 50.1001C3.29999 63.1001 8.70002 74.9 17.4 83.3C19.2 72 28.9 63.3 40.7 63.3H58.4C70.2 63.3 79.9 72 81.7 83.3C90.4 74.9 95.8 63.1001 95.8 50.1001ZM66.1 40.2C66.1 49.2999 58.7 56.7 49.6 56.7C40.4 56.7 33 49.2999 33 40.2C33 31 40.4 23.6001 49.6 23.6001C58.7 23.6001 66.1 31 66.1 40.2ZM62.8 40.2C62.8 32.9 56.9 26.8999 49.6 26.8999C42.3 26.8999 36.3 32.9 36.3 40.2C36.3 47.5 42.3 53.3999 49.6 53.3999C56.9 53.3999 62.8 47.5 62.8 40.2Z" fill="#454B60"/>
<path d="M104.2 82C104.2 91.665 96.3649 99.5 86.7 99.5C77.035 99.5 69.2 91.665 69.2 82C69.2 72.335 77.035 64.5 86.7 64.5C96.3649 64.5 104.2 72.335 104.2 82Z" fill="#454B60"/>
<path fill-rule="evenodd" clip-rule="evenodd" d="M92.4166 83.1667V87.4833C92.4166 88.6499 91.4833 89.5249 90.3749 89.5249H81.7416C80.6333 89.5249 79.7 88.6499 79.7 87.4833V78.8499C79.7 77.7416 80.6333 76.8082 81.7416 76.8082H86.0583C86.175 76.8082 86.2916 76.925 86.2916 77.0417C86.2916 77.1583 86.175 77.2749 86.0583 77.2749H81.7416C80.8666 77.2749 80.1666 77.9749 80.1666 78.8499V87.4833C80.1666 88.3583 80.8666 89.0582 81.7416 89.0582H90.3749C91.2499 89.0582 91.95 88.3583 91.95 87.4833V83.1667C91.95 83.05 92.0666 82.9332 92.1833 82.9332C92.3 82.9332 92.4166 83.05 92.4166 83.1667ZM93.9333 78.0333L92.7083 79.2582L86.7 85.2666C86.6611 85.3055 86.6027 85.325 86.525 85.325L83.725 85.9083C83.725 85.9083 83.7055 85.9083 83.6666 85.9083C83.4333 85.9083 83.3166 85.7333 83.3166 85.5L83.9 82.7C83.9 82.6222 83.9389 82.5638 84.0166 82.5249L90.6083 75.9332L91.1916 75.2917C91.425 75.1167 91.6583 75 91.95 75C92.1833 75 92.475 75.1167 92.65 75.2917L93.9333 76.575C94.3416 76.9833 94.3416 77.625 93.9333 78.0333ZM91.95 79.375L89.85 77.3333L84.3083 82.8166L83.8416 85.4416L86.4083 84.9167L91.95 79.375ZM93.6416 76.8666L92.3583 75.5833C92.2416 75.4667 92.1055 75.4083 91.95 75.4083C91.7944 75.4083 91.6583 75.4667 91.5416 75.5833L90.2 76.9833L92.2999 79.0249L93.6416 77.6832C93.875 77.4499 93.875 77.1 93.6416 76.8666Z" fill="white"/>
</svg>
